<?xml version="1.0" standalone="no"?>
<!DOCTYPE svg PUBLIC "-//W3C//DTD SVG 20010904//EN"
 "http://www.w3.org/TR/2001/REC-SVG-20010904/DTD/svg10.dtd">
<svg version="1.0" xmlns="http://www.w3.org/2000/svg"
 width="449.000000pt" height="180.000000pt" viewBox="0 0 449.000000 180.000000"
 preserveAspectRatio="xMidYMid meet">

<g transform="translate(0.000000,180.000000) scale(0.100000,-0.100000)"
fill="#FFFFFF" stroke="none">
<path d="M3960 1769 c-364 -30 -462 -37 -710 -49 -247 -12 -681 -44 -1865
-135 l-479 -37 -76 20 c-85 23 -101 22 -420 -23 -96 -14 -195 -28 -220 -31
-59 -7 -82 -23 -105 -73 -18 -41 -18 -42 3 -70 17 -23 23 -50 28 -133 l7 -104
27 4 c21 3 31 -1 40 -18 14 -27 -2 -50 -36 -50 -13 0 -24 -5 -24 -12 0 -38 32
-405 36 -418 3 -8 -5 -22 -17 -31 -20 -15 -21 -20 -11 -62 15 -57 11 -67 -38
-99 l-40 -25 46 -7 c26 -3 70 -6 98 -6 28 0 85 -10 126 -22 41 -12 104 -22
140 -22 72 -1 412 19 590 35 63 5 189 14 280 19 199 11 663 45 815 60 61 5
162 15 225 20 63 5 311 28 550 51 239 22 476 44 525 48 50 5 203 19 340 32
l250 24 -182 5 c-123 4 -187 10 -195 18 -6 6 -9 14 -6 18 4 3 64 10 135 15 70
5 205 15 298 23 94 7 174 10 179 6 4 -5 11 -38 13 -75 l6 -66 22 38 c12 21 26
37 32 36 6 -1 13 11 17 28 3 17 15 43 26 59 l20 29 -22 3 c-16 2 -24 10 -25
28 -11 149 -25 314 -29 350 l-6 45 -18 -45 c-36 -91 -43 -67 -60 205 -6 88
-15 205 -20 260 -5 55 -9 112 -10 128 0 19 -5 27 -17 26 -10 -1 -119 -10 -243
-20z m116 -242 c98 -116 95 -101 34 -202 l-53 -87 7 -84 6 -84 -37 -34 c-21
-18 -67 -57 -103 -87 -36 -29 -68 -57 -72 -63 -10 -15 -571 -66 -584 -53 -3 3
21 106 54 228 33 123 62 235 65 248 5 22 4 23 -31 18 -20 -3 -69 -9 -108 -13
l-72 -6 -17 -67 c-9 -36 -23 -86 -30 -111 -7 -25 -23 -83 -35 -130 -48 -186
-50 -189 -84 -194 -75 -12 -256 -17 -256 -7 0 10 43 178 98 383 l29 106 -56
-4 c-31 -3 -80 -7 -108 -10 l-53 -5 -14 -52 c-9 -29 -31 -110 -49 -182 -19
-71 -43 -160 -53 -196 l-18 -67 -143 -13 c-79 -7 -145 -10 -148 -8 -2 3 11 61
30 130 19 68 35 128 35 132 0 5 -33 -19 -74 -52 -41 -34 -79 -61 -84 -61 -5 0
-31 27 -58 61 l-48 60 -38 -143 c-22 -78 -44 -145 -50 -149 -14 -9 -267 -23
-275 -15 -4 3 1 36 10 73 9 37 15 69 13 71 -2 2 -48 -35 -103 -81 l-99 -84
-125 -12 c-112 -10 -389 -30 -431 -31 -15 0 -14 6 3 73 10 39 19 75 19 80 0 4
-48 -33 -106 -81 l-106 -89 -76 -6 c-42 -4 -126 -10 -187 -13 l-110 -6 -60 73
c-33 40 -65 80 -72 89 -12 17 -12 18 42 215 15 55 30 112 33 127 3 20 36 55
122 127 l117 100 133 10 c74 6 159 11 189 11 l56 0 65 -81 65 -81 17 58 c10
33 20 73 24 91 7 37 -9 35 328 59 l229 17 36 -40 c20 -22 52 -59 72 -83 l36
-44 23 88 c13 48 28 89 34 91 6 2 41 6 78 9 l66 6 88 -105 c48 -58 91 -105 95
-105 5 0 75 56 156 124 l148 123 285 23 c157 12 337 26 400 30 63 5 174 13
245 19 72 5 202 15 290 21 88 7 165 13 170 15 6 2 35 4 65 4 l55 1 61 -73z
m-637 -781 c2 -11 -5 -26 -15 -33 -15 -11 -4 -13 74 -13 86 0 114 -9 75 -24
-34 -13 -261 -36 -420 -43 -142 -5 -163 -4 -163 9 0 17 22 21 225 38 72 6 141
13 155 16 22 5 23 7 7 15 -17 10 -23 40 -10 53 15 15 68 1 72 -18z m-609 -154
c0 -8 -109 -22 -410 -52 -178 -18 -785 -60 -872 -60 -49 0 -88 4 -88 9 0 5 35
14 78 20 86 12 574 54 842 72 96 6 177 13 179 15 9 8 271 4 271 -4z m-1860
-141 c0 -13 -81 -30 -205 -41 -138 -13 -325 -13 -325 -1 0 5 24 14 53 20 118
24 477 40 477 22z"/>
<path d="M3242 1490 c-45 -4 -85 -9 -87 -12 -6 -6 181 -98 199 -98 8 0 18 18
25 44 6 24 13 51 17 60 7 18 -8 19 -154 6z"/>
<path d="M2890 1447 c0 -21 30 -37 69 -37 24 0 31 4 31 19 0 10 -7 22 -16 25
-22 9 -23 8 -17 -14 7 -27 -20 -26 -47 2 -16 18 -20 19 -20 5z"/>
<path d="M2749 1395 c-7 -30 -10 -57 -8 -59 2 -2 51 0 108 5 57 5 106 8 107 6
2 -1 -12 -59 -31 -127 -46 -171 -95 -360 -95 -365 0 -7 65 -6 127 1 l51 7 15
58 c14 56 10 78 -13 64 -9 -6 -40 17 -40 29 0 3 9 6 19 6 11 0 21 6 24 13 3 9
7 9 19 -1 13 -11 19 2 46 100 17 62 34 125 37 139 6 24 2 28 -52 52 -32 14
-82 35 -111 46 -29 12 -74 32 -100 45 -88 44 -89 44 -103 -19z m251 -245 c0
-5 8 -10 18 -11 10 0 12 -3 5 -6 -7 -2 -13 -10 -13 -17 0 -7 -15 -12 -36 -13
-19 -1 -33 1 -30 5 3 3 1 11 -5 19 -9 10 -7 13 9 13 12 0 24 5 27 10 3 6 10
10 16 10 5 0 9 -4 9 -10z m-47 -217 c-6 -17 -60 -17 -65 -1 -7 19 33 37 54 24
9 -5 14 -16 11 -23z"/>
<path d="M3054 1439 c-3 -6 6 -24 22 -40 l28 -29 -27 0 c-14 0 -30 8 -36 17
-5 10 -13 15 -17 11 -23 -24 65 -60 92 -37 13 10 11 16 -12 41 -26 26 -26 28
-7 28 11 0 23 -7 27 -15 7 -19 26 -20 26 -2 0 27 -81 49 -96 26z"/>
<path d="M2536 1433 c-11 -3 -91 -65 -178 -139 -86 -74 -161 -134 -165 -133
-5 0 -37 36 -73 80 -66 82 -96 103 -127 92 -10 -3 -15 -3 -11 2 4 4 3 14 -3
22 -9 10 -8 13 5 13 9 0 16 5 16 10 0 6 -20 10 -45 10 -44 0 -44 0 -55 -42 -6
-24 -15 -57 -20 -75 -4 -17 -6 -34 -3 -36 2 -3 -2 -18 -10 -34 -15 -29 -117
-404 -117 -430 0 -10 6 -12 23 -7 12 4 47 8 77 9 76 2 80 3 80 18 0 19 82 321
90 330 4 5 30 -20 58 -55 87 -110 70 -111 205 4 65 55 120 98 123 96 2 -3 -15
-73 -37 -156 -26 -96 -39 -158 -34 -169 5 -10 7 -22 6 -26 -2 -9 141 2 150 12
4 3 39 128 78 276 39 149 75 285 80 303 l10 32 -52 -1 c-29 -1 -61 -4 -71 -6z
m-576 -264 c0 -5 -9 -9 -20 -9 -22 0 -27 16 -7 23 15 5 27 -1 27 -14z m-6
-102 c9 -9 10 -15 2 -22 -17 -15 -64 -14 -70 1 -3 9 2 14 14 14 10 0 22 5 25
10 8 13 14 13 29 -3z m516 -127 c0 -5 7 -10 16 -10 13 0 13 -2 1 -14 -15 -16
-48 -16 -59 -2 -4 6 1 16 10 23 21 15 32 16 32 3z"/>
<path d="M3185 1380 c-4 -6 10 -10 35 -10 25 0 39 4 35 10 -3 6 -19 10 -35 10
-16 0 -32 -4 -35 -10z"/>
<path d="M1520 1319 c-138 -47 -209 -58 -240 -36 -14 9 -17 17 -11 22 15 9 4
25 -17 25 -14 0 -15 -2 -3 -9 12 -8 12 -12 2 -25 -11 -13 -11 -16 3 -16 9 0
16 -4 16 -10 0 -5 -11 -10 -24 -10 -14 0 -28 5 -31 10 -3 6 0 10 7 10 10 0 10
2 -1 9 -7 5 -11 14 -7 20 5 7 1 9 -9 5 -10 -4 -14 -16 -13 -33 3 -21 -1 -26
-20 -25 -18 0 -24 -7 -32 -38 -6 -21 -15 -56 -20 -78 -6 -22 -8 -44 -5 -49 3
-5 1 -11 -5 -13 -11 -4 -83 -267 -76 -282 2 -6 29 -26 59 -44 l56 -34 164 12
165 13 100 85 101 84 -6 78 -6 79 47 82 c38 68 44 85 34 98 -51 67 -92 111
-101 110 -7 0 -64 -18 -127 -40z m-88 -86 c57 4 117 7 134 5 l32 -3 -36 -62
-36 -62 -75 -6 c-42 -3 -96 -8 -120 -10 l-44 -5 6 45 c5 36 4 43 -8 39 -8 -4
-15 -2 -15 4 0 6 -3 17 -6 26 -4 11 0 16 14 16 12 0 24 5 28 11 3 6 10 7 15 2
5 -5 54 -5 111 0z m-85 -234 c6 -20 11 -21 70 -16 71 7 68 10 77 -69 l5 -52
-107 -6 c-59 -4 -122 -10 -139 -13 -38 -6 -39 -2 -18 70 12 38 26 59 52 80 44
33 53 34 60 6z"/>
<path d="M1393 1173 c-18 -2 -33 -7 -33 -11 0 -10 123 -2 135 9 9 9 -37 10
-102 2z"/>
<path d="M1323 923 c-18 -2 -33 -9 -33 -15 0 -7 14 -8 38 -4 20 3 54 6 75 6
20 0 37 5 37 10 0 10 -52 11 -117 3z"/>
<path d="M3723 1353 c-18 -2 -33 -9 -33 -15 0 -7 14 -8 38 -4 20 3 52 6 70 6
17 0 32 5 32 10 0 10 -42 11 -107 3z"/>
<path d="M1330 1322 c0 -14 6 -22 16 -22 14 0 15 3 3 18 -7 9 -15 19 -16 21
-2 2 -3 -5 -3 -17z"/>
<path d="M945 1231 c-6 -4 -77 -18 -160 -30 -82 -12 -152 -24 -154 -27 -3 -3
46 -2 108 2 113 7 113 7 107 -14 -18 -63 -24 -58 70 -51 87 7 104 15 104 51 0
17 -46 78 -59 78 -4 0 -11 -4 -16 -9z"/>
<path d="M1782 1163 c-4 -10 -20 -39 -35 -65 -25 -41 -27 -52 -21 -100 7 -50
8 -51 16 -23 4 17 19 69 32 118 22 79 26 113 8 70z"/>
<path d="M550 1156 c0 -8 5 -18 10 -21 6 -3 10 3 10 14 0 12 -4 21 -10 21 -5
0 -10 -6 -10 -14z"/>
<path d="M689 1123 l-67 -4 -32 -117 c-17 -64 -34 -125 -36 -134 -5 -16 3 -18
73 -18 l79 0 12 44 c13 51 13 51 192 62 l106 6 11 47 c6 25 9 48 7 50 -2 2
-61 -1 -131 -6 -70 -5 -131 -7 -135 -4 -4 3 -3 23 1 44 6 26 6 36 -3 35 -6 -1
-41 -3 -77 -5z"/>
<path d="M3680 1103 c-25 -3 -49 -9 -55 -15 -7 -7 2 -9 30 -4 22 3 59 6 83 6
26 0 41 4 37 10 -3 6 -16 9 -28 8 -12 -1 -42 -3 -67 -5z"/>
<path d="M870 893 c0 -5 13 -15 29 -24 21 -12 32 -14 40 -6 23 23 12 37 -29
37 -22 0 -40 -3 -40 -7z"/>
<path d="M315 846 c-3 -9 -7 -23 -10 -32 -3 -9 18 -42 52 -82 l56 -67 76 3
c42 2 80 8 85 12 13 13 -123 128 -184 157 -49 23 -70 25 -75 9z"/>
<path d="M4395 930 c-4 -7 -3 -16 3 -22 14 -14 45 -2 40 15 -6 16 -34 21 -43
7z"/>
</g>
</svg>
